<svg width="59" height="59" viewBox="0 0 59 59" fill="none" xmlns="http://www.w3.org/2000/svg">
<path fill-rule="evenodd" clip-rule="evenodd" d="M18.0565 9.87511C25.6622 9.033 33.3378 9.033 40.9435 9.87511C45.1547 10.3471 48.5521 13.6634 49.0462 17.8893C49.9475 25.6035 49.9475 33.3965 49.0462 41.1107C48.5521 45.3366 45.1547 48.6529 40.9435 49.1249C33.3378 49.967 25.6622 49.967 18.0565 49.1249C13.8453 48.6529 10.4479 45.3366 9.95379 41.1107C9.0527 33.3973 9.0527 25.6052 9.95379 17.8917C10.2037 15.8387 11.1396 13.9302 12.6099 12.4756C14.0801 11.0211 15.9984 10.1056 18.054 9.87757M29.5 17.2255C29.989 17.2255 30.458 17.4198 30.8037 17.7656C31.1495 18.1113 31.3437 18.5803 31.3437 19.0693V27.6562H39.9307C40.4197 27.6562 40.8887 27.8505 41.2344 28.1963C41.5802 28.542 41.7745 29.011 41.7745 29.5C41.7745 29.989 41.5802 30.4579 41.2344 30.8037C40.8887 31.1495 40.4197 31.3437 39.9307 31.3437H31.3437V39.9307C31.3437 40.4197 31.1495 40.8887 30.8037 41.2344C30.458 41.5802 29.989 41.7744 29.5 41.7744C29.011 41.7744 28.542 41.5802 28.1963 41.2344C27.8505 40.8887 27.6562 40.4197 27.6562 39.9307V31.3437H19.0693C18.5803 31.3437 18.1113 31.1495 17.7656 30.8037C17.4198 30.4579 17.2255 29.989 17.2255 29.5C17.2255 29.011 17.4198 28.542 17.7656 28.1963C18.1113 27.8505 18.5803 27.6562 19.0693 27.6562H27.6562V19.0693C27.6562 18.5803 27.8505 18.1113 28.1963 17.7656C28.542 17.4198 29.011 17.2255 29.5 17.2255Z" fill="black"/>
</svg>
