<svg width="33" height="31" viewBox="0 0 33 31" fill="none" xmlns="http://www.w3.org/2000/svg">
<path fill-rule="evenodd" clip-rule="evenodd" d="M7.79068 3.73549V6.30468L4.79515 6.55436C3.76604 6.63911 2.79442 7.07445 2.03564 7.79079C1.27685 8.50714 0.774726 9.4631 0.609542 10.5059C0.536451 10.9727 0.469255 11.44 0.407954 11.9081C0.394194 12.0213 0.415664 12.1361 0.469313 12.2361C0.522961 12.3362 0.606059 12.4164 0.706799 12.4653L0.84296 12.5304C10.4432 17.1803 21.939 17.1803 31.5374 12.5304L31.6736 12.4653C31.774 12.4161 31.8567 12.3358 31.91 12.2357C31.9633 12.1357 31.9846 12.0211 31.9706 11.9081C31.9107 11.4397 31.8441 10.9722 31.7708 10.5059C31.6056 9.4631 31.1035 8.50714 30.3447 7.79079C29.586 7.07445 28.6143 6.63911 27.5852 6.55436L24.5897 6.30649V3.7373C24.5899 2.97894 24.324 2.2457 23.8405 1.67094C23.357 1.09618 22.6879 0.718087 21.9549 0.605416L19.7976 0.274316C17.4059 -0.0914388 14.9744 -0.0914388 12.5828 0.274316L10.4255 0.605416C9.69281 0.718041 9.02396 1.09588 8.54046 1.67026C8.05697 2.24464 7.79092 2.97744 7.79068 3.73549ZM19.4032 2.95749C17.273 2.63195 15.1074 2.63195 12.9772 2.95749L10.8198 3.28859C10.7151 3.30462 10.6196 3.35854 10.5504 3.44054C10.4813 3.52255 10.4433 3.6272 10.4432 3.73549V6.11471C14.2714 5.89101 18.109 5.89101 21.9372 6.11471V3.73549C21.9371 3.6272 21.899 3.52255 21.8299 3.44054C21.7608 3.35854 21.6652 3.30462 21.5606 3.28859L19.4032 2.95749Z" fill="#969595"/>
<path d="M32.3137 15.6931C32.3102 15.6346 32.2929 15.5778 32.2632 15.5277C32.2335 15.4776 32.1924 15.4356 32.1433 15.4053C32.0942 15.3751 32.0387 15.3575 31.9816 15.354C31.9244 15.3506 31.8672 15.3614 31.815 15.3855C21.9637 19.849 10.4166 19.849 0.565339 15.3855C0.513144 15.3614 0.456 15.3506 0.398821 15.354C0.341641 15.3575 0.286138 15.3751 0.237083 15.4053C0.188028 15.4356 0.14689 15.4776 0.117206 15.5277C0.0875224 15.5778 0.0701807 15.6346 0.066673 15.6931C-0.112427 19.157 0.0695572 22.6305 0.609546 26.0549C0.774372 27.098 1.27634 28.0544 2.03516 28.7711C2.79397 29.4878 3.76579 29.9234 4.79515 30.0082L8.10544 30.2796C13.4864 30.7247 18.8922 30.7247 24.2749 30.2796L27.5852 30.0082C28.6146 29.9234 29.5864 29.4878 30.3452 28.7711C31.104 28.0544 31.606 27.098 31.7708 26.0549C32.3119 22.6263 32.4958 19.1525 32.3137 15.6949" fill="#969595"/>
</svg>
