<svg width="38" height="38" viewBox="0 0 38 38" fill="none" xmlns="http://www.w3.org/2000/svg">
<path d="M15.0385 9.17231C17.2868 6.15764 20.6672 5.27731 23.7769 6.12439C27.1336 7.03798 30.0849 9.92123 31.065 13.9366C31.1157 14.1424 31.1595 14.3482 31.1964 14.5541C29.7816 14.0499 28.2427 14.0111 26.8042 14.4432C24.7665 12.9359 22.2427 12.6826 19.9991 13.5091C17.1887 14.5461 14.9942 17.1761 14.4859 20.4852C13.8367 24.7222 16.4176 28.5286 20.0672 31.7649L20.6815 32.2969C20.1859 32.3317 19.6824 32.2541 19.2011 32.1512C18.9538 32.098 18.7077 32.0389 18.4632 31.9739L17.613 31.7364C10.0542 29.61 4.99383 26.2834 3.54191 21.3117C2.38291 17.3439 3.49758 13.3713 5.94858 10.9013C8.21908 8.61339 11.5852 7.68556 15.0385 9.17231ZM17.6162 20.965C18.2938 16.5443 23.4064 14.3656 26.0316 18.1593C26.0567 18.1946 26.0948 18.2185 26.1375 18.2259C26.1801 18.2333 26.224 18.2236 26.2596 18.1989C30.0232 15.5326 34.0812 19.3278 33.2057 23.7136C32.699 26.2575 30.3398 28.3686 26.1282 30.047L25.4394 30.3161L25.023 30.4871C24.6636 30.6281 24.2836 30.7405 23.94 30.6803C23.598 30.6201 23.2797 30.3826 22.99 30.1293L22.4992 29.686C18.8364 26.5341 17.2087 23.6271 17.6162 20.965Z" fill="#969595"/>
</svg>
