<svg width="37" height="37" viewBox="0 0 37 37" fill="none" xmlns="http://www.w3.org/2000/svg">
<path d="M33.3766 31.7969C33.2751 31.9727 33.1291 32.1187 32.9533 32.2202C32.7775 32.3217 32.578 32.3751 32.375 32.375H4.625C4.42214 32.3748 4.2229 32.3212 4.0473 32.2197C3.87169 32.1181 3.72589 31.9721 3.62455 31.7964C3.52321 31.6206 3.46989 31.4213 3.46994 31.2185C3.46999 31.0156 3.52342 30.8163 3.62485 30.6407C5.82606 26.8351 9.21821 24.1064 13.1769 22.8128C11.2188 21.6471 9.6974 19.8709 8.84645 17.7568C7.99551 15.6428 7.86205 13.3079 8.46656 11.1107C9.07107 8.91343 10.3801 6.97538 12.1927 5.59414C14.0053 4.2129 16.2211 3.46484 18.5 3.46484C20.7789 3.46484 22.9947 4.2129 24.8073 5.59414C26.6199 6.97538 27.9289 8.91343 28.5335 11.1107C29.138 13.3079 29.0045 15.6428 28.1536 17.7568C27.3026 19.8709 25.7812 21.6471 23.8231 22.8128C27.7818 24.1064 31.174 26.8351 33.3752 30.6407C33.4769 30.8163 33.5305 31.0156 33.5308 31.2186C33.531 31.4215 33.4779 31.621 33.3766 31.7969Z" fill="#969595"/>
</svg>
